<?xml version="1.0" encoding="UTF-8"?>
<!-- Do not edit this file with editors other than diagrams.net -->
<!DOCTYPE svg PUBLIC "-//W3C//DTD SVG 1.1//EN" "http://www.w3.org/Graphics/SVG/1.1/DTD/svg11.dtd">
<svg xmlns="http://www.w3.org/2000/svg" xmlns:xlink="http://www.w3.org/1999/xlink" version="1.1" width="311px" height="59px" viewBox="-0.5 -0.5 311 59" content="&lt;mxfile host=&quot;Electron&quot; modified=&quot;2023-02-27T12:32:24.425Z&quot; agent=&quot;5.0 (Windows NT 10.0; Win64; x64) AppleWebKit/537.36 (KHTML, like Gecko) draw.io/16.0.0 Chrome/91.0.4472.164 Electron/13.6.3 Safari/537.36&quot; etag=&quot;wbzod6jsHO8k2OEK2n7o&quot; version=&quot;16.0.0&quot; type=&quot;device&quot;&gt;&lt;diagram id=&quot;VdDcQLoi-CLXlB_G62WK&quot; name=&quot;第 1 页&quot;&gt;rZRNc5swEIZ/DdNTGCMKdo8xdeJ20k4yPjS3jAwb0ERoqSRs3F/fVRC28cdMM1MuSM+uvvZ9pSDO6u5e86b6gQXIgE2KLoi/BoxFE/aZfo7sepLGaQ9KLQqfdAAr8QeGkZ62ogAzSrSI0opmDHNUCnI7Ylxr3I7TXlGOV214CWdglXN5Tn+JwlY9nbHpgS9BlNWwcpR+6SM1H5L9SUzFC9weoXgRxJlGtH2r7jKQrnhDXfpxd1ei+41pUPZfBrxkkPyMkqdvc7ZeLeXj0jw/3fhZNly2/sABSyXNN39FmpZ2bXe+FOnvFofAjXkX6pYSWNJ0h6ArMc/HA+4BdSn4cVJauv+Sq913AZ+M05nrAtSwOJ2iX79P9AXcb4VZ6ByvbC0JRNQ0VuMbZChRE1GowG1VSHmCuBSlom5OVQPi8w1oK0jvWx+oRVG4ZebbSlhYNf1ptuRuYhpbVYAr6GS/LTcBdFdFifZS0x0BrMHqHaX4AWzm3eGvB4vSMJ71aHvwWzzxadWR1xLPuLd4uZ/94AJqeCN8wBTxBVOcCEBmblyz7kp370NDxTOhyQWoHELV5hK4fmFjjRoUruiLDRXHeHYsUeDO6b5reg5aPfA1yEc0wgp0mq3RWqwviGmxuaS5eQObV15FZ7Q7XgvpJHhoc1GQVScZKoPvPnBx/y45Jf+L6tNT1Vk4Tc5UTy+JPg1Z8mHdqXt4aN5jR891vPgL&lt;/diagram&gt;&lt;/mxfile&gt;" style="background-color: rgb(255, 255, 255);"><defs/><g><rect x="10" y="3.38" width="300" height="50" fill="none" stroke="none" pointer-events="all"/><g transform="translate(-0.5 -0.5)"><switch><foreignObject pointer-events="none" width="100%" height="100%" requiredFeatures="http://www.w3.org/TR/SVG11/feature#Extensibility" style="overflow: visible; text-align: left;"><div xmlns="http://www.w3.org/1999/xhtml" style="display: flex; align-items: unsafe center; justify-content: unsafe center; width: 298px; height: 1px; padding-top: 28px; margin-left: 11px;"><div data-drawio-colors="color: rgb(0, 0, 0); " style="box-sizing: border-box; font-size: 0px; text-align: center;"><div style="display: inline-block; font-size: 12px; font-family: Helvetica; color: rgb(0, 0, 0); line-height: 1.2; pointer-events: all; white-space: normal; overflow-wrap: normal;"><font style="font-size: 25px" face="Georgia">HanyJie's garden</font></div></div></div></foreignObject><text x="160" y="32" fill="rgb(0, 0, 0)" font-family="Helvetica" font-size="12px" text-anchor="middle">HanyJie's garden</text></switch></g><rect x="0" y="-0.25" width="60" height="57.25" fill="none" stroke="none" pointer-events="all"/><path d="M 16.79 28.38 C 16.79 12.57 22.71 -0.25 30 -0.25 C 37.3 -0.25 43.21 12.57 43.21 28.38 C 43.21 44.18 37.29 57 30 57 C 22.71 57 16.79 44.18 16.79 28.38 Z M 30 54.57 C 36.68 54.57 42.09 42.84 42.09 28.38 C 42.09 13.9 36.68 2.18 30 2.18 C 23.32 2.18 17.91 13.91 17.91 28.38 C 17.91 42.84 23.32 54.57 30 54.57 Z M 36.6 39.13 C 22.05 47.04 7.29 48.63 3.65 42.69 C 0 36.74 8.84 25.52 23.4 17.61 C 37.95 9.71 52.71 8.12 56.35 14.06 C 60 20 51.16 31.23 36.6 39.13 Z M 54.13 15.28 C 50.79 9.83 37.28 11.3 23.96 18.53 C 10.63 25.76 2.54 36.04 5.88 41.47 C 9.21 46.92 22.72 45.45 36.04 38.22 C 49.37 30.99 57.46 20.71 54.13 15.28 Z M 36.6 17.61 C 51.16 25.52 60 36.74 56.35 42.69 C 52.71 48.63 37.95 47.04 23.4 39.13 C 8.84 31.23 0 20 3.65 14.06 C 7.29 8.12 22.05 9.71 36.6 17.61 Z M 5.88 15.28 C 2.54 20.72 10.64 30.99 23.96 38.22 C 37.29 45.46 50.79 46.92 54.13 41.47 C 57.46 36.03 49.37 25.76 36.04 18.53 C 22.72 11.29 9.21 9.83 5.88 15.28 Z" fill="#000000" stroke="none" pointer-events="all"/><ellipse cx="30" cy="28.38" rx="4.911746804625684" ry="4.661092615012107" fill="#000000" stroke="none" pointer-events="all"/></g><switch><g requiredFeatures="http://www.w3.org/TR/SVG11/feature#Extensibility"/><a transform="translate(0,-5)" xlink:href="https://www.diagrams.net/doc/faq/svg-export-text-problems" target="_blank"><text text-anchor="middle" font-size="10px" x="50%" y="100%">Viewer does not support full SVG 1.1</text></a></switch></svg>