<?xml version="1.0" encoding="UTF-8"?>
<!-- Do not edit this file with editors other than diagrams.net -->
<!DOCTYPE svg PUBLIC "-//W3C//DTD SVG 1.1//EN" "http://www.w3.org/Graphics/SVG/1.1/DTD/svg11.dtd">
<svg xmlns="http://www.w3.org/2000/svg" xmlns:xlink="http://www.w3.org/1999/xlink" version="1.1" width="511px" height="95px" viewBox="-0.5 -0.5 511 95" content="&lt;mxfile host=&quot;Electron&quot; modified=&quot;2023-02-27T13:57:13.668Z&quot; agent=&quot;5.0 (Windows NT 10.0; Win64; x64) AppleWebKit/537.36 (KHTML, like Gecko) draw.io/16.0.0 Chrome/91.0.4472.164 Electron/13.6.3 Safari/537.36&quot; etag=&quot;GlGPriH_sMw7zCbH_nyv&quot; version=&quot;16.0.0&quot; type=&quot;device&quot;&gt;&lt;diagram id=&quot;VdDcQLoi-CLXlB_G62WK&quot; name=&quot;第 1 页&quot;&gt;rVTBcpswEP0apqcwIGxqH2PqxO0kbTI+tLeMDBvQRLBUEjbu13dlhA22M9PMlAvi7a529d5DXpSU7b3idfGIGUiPBVnrRV88xsKATehlkX2HxFHcAbkSmUs6AWvxB/pKhzYiAz1KNIjSiHoMplhVkJoRxpXC3TjtFeW4a81zuADWKZeX6E+RmaJDZ+zzCV+ByIu+cxjPu0jJ+2R3El3wDHcDKFp6UaIQTbcq2wSkJa/npau7eyd6HExBZf6l4CWB6fdw+vx1wTbrlXxa6V/PN26XLZeNO7DHYkn7LV6RtqWpzd5REf9usA/c6INQt5QwDer2FLQU83RccA+ocsGHSXFu3yte7b8J+KSpavXjcdm3pjN03bs0R99xEGagtXhhSklASEttFL5BghIVIRVWYAcVUp5BXIq8os+UOAPCF1tQRpDaty5QiiyzbRa7QhhY191ZduRtwhQ2VQaWzuA41pD/nkzaE9oB5PQgHkowak8pLspmzhvu52Bh7EezDtqd3DbpLVQMnDaP/Jg5nzuP58cGJxvQwjnhA66IrrjiTANyc22XZZvbH9/XxJ/2dSqgSsGvmlQCVy9sLFONwvK+3BJl2mFDlTwWBYfnPUl7uR74BuQTamEEWtk2aAyWV/Q0WF+TXb+BSQsnpPXaHS+FtCo8NKnIyKtBgpXGgxVs3F1MVsz/IXw4PxOeBf7kUvj5Fd1nU38SfVh3+jzdNIfY4L6Oln8B&lt;/diagram&gt;&lt;/mxfile&gt;" style="background-color: rgb(255, 255, 255);"><defs/><g><rect x="90" y="0.38" width="420" height="93.62" fill="none" stroke="none" pointer-events="all"/><g transform="translate(-0.5 -0.5)"><switch><foreignObject pointer-events="none" width="100%" height="100%" requiredFeatures="http://www.w3.org/TR/SVG11/feature#Extensibility" style="overflow: visible; text-align: left;"><div xmlns="http://www.w3.org/1999/xhtml" style="display: flex; align-items: unsafe center; justify-content: unsafe center; width: 418px; height: 1px; padding-top: 47px; margin-left: 91px;"><div data-drawio-colors="color: rgb(0, 0, 0); " style="box-sizing: border-box; font-size: 0px; text-align: center;"><div style="display: inline-block; font-size: 12px; font-family: Helvetica; color: rgb(0, 0, 0); line-height: 1.2; pointer-events: all; white-space: normal; overflow-wrap: normal;"><font style="font-size: 50px" face="Georgia">HanyJie's HOME</font></div></div></div></foreignObject><text x="300" y="51" fill="rgb(0, 0, 0)" font-family="Helvetica" font-size="12px" text-anchor="middle">HanyJie's HOME</text></switch></g><rect x="0" y="4.48" width="90" height="85.43" fill="none" stroke="none" pointer-events="all"/><path d="M 25.19 47.2 C 25.19 23.61 34.06 4.48 45 4.48 C 55.95 4.48 64.81 23.61 64.81 47.2 C 64.81 70.78 55.94 89.91 45 89.91 C 34.06 89.91 25.19 70.78 25.19 47.2 Z M 45 86.29 C 55.02 86.29 63.13 68.79 63.13 47.2 C 63.13 25.6 55.02 8.1 45 8.1 C 34.98 8.1 26.87 25.6 26.87 47.2 C 26.87 68.79 34.98 86.29 45 86.29 Z M 54.91 63.24 C 33.07 75.04 10.94 77.42 5.47 68.55 C 0 59.68 13.27 42.94 35.09 31.14 C 56.93 19.34 79.06 16.97 84.53 25.84 C 90 34.7 76.73 51.45 54.91 63.24 Z M 81.19 27.65 C 76.19 19.53 55.92 21.71 35.94 32.5 C 15.95 43.3 3.81 58.63 8.82 66.74 C 13.82 74.86 34.08 72.68 54.07 61.89 C 74.05 51.09 86.19 35.76 81.19 27.65 Z M 54.91 31.14 C 76.73 42.94 90 59.68 84.53 68.55 C 79.06 77.42 56.92 75.04 35.09 63.24 C 13.27 51.45 0 34.7 5.47 25.84 C 10.94 16.97 33.07 19.35 54.91 31.14 Z M 8.82 27.65 C 3.82 35.77 15.96 51.09 35.94 61.89 C 55.93 72.69 76.19 74.86 81.19 66.74 C 86.19 58.62 74.05 43.3 54.07 32.5 C 34.08 21.7 13.82 19.53 8.82 27.65 Z" fill="#000000" stroke="none" pointer-events="all"/><ellipse cx="45" cy="47.2" rx="7.367620206938528" ry="6.955408595641647" fill="#000000" stroke="none" pointer-events="all"/></g><switch><g requiredFeatures="http://www.w3.org/TR/SVG11/feature#Extensibility"/><a transform="translate(0,-5)" xlink:href="https://www.diagrams.net/doc/faq/svg-export-text-problems" target="_blank"><text text-anchor="middle" font-size="10px" x="50%" y="100%">Viewer does not support full SVG 1.1</text></a></switch></svg>